<svg xmlns="http://www.w3.org/2000/svg" viewBox="0 0 600 600"><defs><style>.cls-1{fill:#ffd38d;}.cls-2{fill:#cecdcd;stroke:#cecdcd;}.cls-2,.cls-6{stroke-miterlimit:10;}.cls-3{fill:#fcf8c7;}.cls-4{fill:#baa7d1;}.cls-5{fill:#ac96c7;}.cls-6{fill:#f1f1f1;stroke:#f2f3f0;}</style></defs><title>img-logo</title><g id="Layer_2" data-name="Layer 2"><g id="Layer_1-2" data-name="Layer 1"><rect class="cls-1" width="600" height="600" rx="300"/><path class="cls-2" d="M525.86,327.15a42.9,42.9,0,0,0-54.06-38.69c-9.3-24.48-33.91-42-62.82-42-29.53,0-54.57,18.26-63.39,43.56a55.27,55.27,0,0,0-11.07-1.12c-29.34,0-53.12,22.79-53.12,50.9,0,21.75,14.24,40.29,34.27,47.57a32.52,32.52,0,0,0,16.58,4.53H519.78a32.67,32.67,0,0,0,32.67-32.67h0A32.68,32.68,0,0,0,525.86,327.15Z"/><polygon class="cls-3" points="158.05 260.49 153.6 251.49 149.16 260.49 139.23 261.93 146.42 268.94 144.72 278.83 153.6 274.16 162.49 278.83 160.79 268.94 167.98 261.93 158.05 260.49"/><polygon class="cls-3" points="191.06 341.5 186.61 332.5 182.17 341.5 172.24 342.94 179.43 349.95 177.73 359.84 186.61 355.17 195.5 359.84 193.8 349.95 200.99 342.94 191.06 341.5"/><polygon class="cls-3" points="221.02 287.39 216.58 278.39 212.14 287.39 202.21 288.83 209.39 295.83 207.7 305.73 216.58 301.06 225.46 305.73 223.77 295.83 230.95 288.83 221.02 287.39"/><polygon class="cls-3" points="127.96 314.73 123.52 305.73 119.08 314.73 109.14 316.17 116.33 323.18 114.63 333.07 123.52 328.4 132.4 333.07 130.71 323.18 137.89 316.17 127.96 314.73"/><polygon class="cls-3" points="176.27 230.93 185.15 226.26 194.04 230.93 192.34 221.03 199.53 214.03 189.59 212.59 185.15 203.59 180.71 212.59 170.78 214.03 177.97 221.03 176.27 230.93"/><polygon class="cls-3" points="407.83 246.82 403.39 237.82 398.95 246.82 389.02 248.26 396.2 255.27 394.51 265.16 403.39 260.49 412.27 265.16 410.58 255.27 417.76 248.26 407.83 246.82"/><polygon class="cls-3" points="460.33 326.91 467.51 319.9 457.58 318.46 453.14 309.46 448.7 318.46 438.77 319.9 445.95 326.91 444.26 336.8 453.14 332.13 462.02 336.8 460.33 326.91"/><polygon class="cls-3" points="495.5 290.4 504.38 295.07 502.69 285.18 509.88 278.18 499.94 276.73 495.5 267.73 491.06 276.73 481.13 278.18 488.31 285.18 486.62 295.07 495.5 290.4"/><polygon class="cls-3" points="538.46 333.07 547.35 328.4 556.23 333.07 554.53 323.18 561.72 316.17 551.79 314.73 547.35 305.73 542.9 314.73 532.97 316.17 540.16 323.18 538.46 333.07"/><polygon class="cls-3" points="512.8 368 519.99 361 510.06 359.56 505.62 350.56 501.18 359.56 491.24 361 498.43 368 496.73 377.9 505.62 373.23 514.5 377.9 512.8 368"/><polygon class="cls-3" points="474.07 391.51 469.89 383.05 465.71 391.51 456.37 392.87 463.13 399.46 461.54 408.76 469.89 404.37 478.25 408.76 476.65 399.46 483.41 392.87 474.07 391.51"/><polygon class="cls-3" points="73.81 290.4 69.37 281.4 64.93 290.4 54.99 291.85 62.18 298.85 60.48 308.74 69.37 304.07 78.25 308.74 76.56 298.85 83.74 291.85 73.81 290.4"/><polygon class="cls-3" points="241.99 239.93 237.55 230.93 233.1 239.93 223.17 241.37 230.36 248.38 228.66 258.27 237.55 253.6 246.43 258.27 244.73 248.38 251.92 241.37 241.99 239.93"/><polygon class="cls-3" points="208.18 173.27 215.36 166.27 205.43 164.82 200.99 155.82 196.55 164.82 186.61 166.27 193.8 173.27 192.1 183.17 200.99 178.5 209.87 183.17 208.18 173.27"/><polygon class="cls-3" points="215.98 207.36 214.29 217.26 223.17 212.59 232.06 217.26 230.36 207.36 237.55 200.36 227.61 198.91 223.17 189.91 218.73 198.91 208.8 200.36 215.98 207.36"/><polygon class="cls-3" points="123.52 203.59 119.08 212.59 109.14 214.03 116.33 221.03 114.63 230.93 123.52 226.26 132.4 230.93 130.71 221.03 137.89 214.03 127.96 212.59 123.52 203.59"/><polygon class="cls-3" points="109.14 277.33 118.03 282 116.33 272.11 123.52 265.1 113.58 263.66 109.14 254.66 104.7 263.66 94.77 265.1 101.96 272.11 100.26 282 109.14 277.33"/><polygon class="cls-3" points="549.15 372.69 544.97 364.23 540.79 372.69 531.45 374.05 538.21 380.64 536.62 389.94 544.97 385.55 553.32 389.94 551.73 380.64 558.49 374.05 549.15 372.69"/><polygon class="cls-3" points="523.42 409.65 519.24 401.18 515.07 409.65 505.73 411 512.48 417.59 510.89 426.9 519.24 422.5 527.6 426.9 526 417.59 532.76 411 523.42 409.65"/><path class="cls-4" d="M224.39,136a167.92,167.92,0,0,0-81.81,21.11c1.73-.08,3.48-.13,5.24-.13a111.54,111.54,0,1,1-86,182.61C79.44,412.17,145.53,466.1,224.39,466.1c92.31,0,167.13-73.89,167.13-165S316.7,136,224.39,136Zm24.76,27.59a4.52,4.52,0,1,1,4.53-4.52A4.52,4.52,0,0,1,249.15,163.62ZM157.82,417.28a4.21,4.21,0,1,1,4.21-4.21A4.2,4.2,0,0,1,157.82,417.28ZM172.24,438a11.13,11.13,0,1,1,11.13-11.12A11.12,11.12,0,0,1,172.24,438Z"/><circle class="cls-5" cx="172.24" cy="426.9" r="11.13" transform="translate(-93.47 50.99) rotate(-13.28)"/><circle class="cls-5" cx="157.82" cy="413.07" r="4.21"/><circle class="cls-5" cx="249.15" cy="159.1" r="4.52" transform="translate(-29.89 61.5) rotate(-13.28)"/><path class="cls-6" d="M465.17,400.66a47.15,47.15,0,0,0-59.42-42.54C395.52,331.22,368.46,312,336.69,312c-32.46,0-60,20.06-69.68,47.87a60.89,60.89,0,0,0-12.17-1.22c-32.25,0-58.39,25-58.39,55.94,0,23.9,15.66,44.29,37.68,52.29a35.67,35.67,0,0,0,18.22,5H458.48a35.91,35.91,0,0,0,35.91-35.91h0A35.9,35.9,0,0,0,465.17,400.66Z"/></g></g></svg>