<svg xmlns="http://www.w3.org/2000/svg" xmlns:xlink="http://www.w3.org/1999/xlink" viewBox="0 0 214.76 214.76"><defs><style>.cls-1,.cls-10,.cls-100,.cls-101,.cls-102,.cls-103,.cls-104,.cls-105,.cls-106,.cls-107,.cls-108,.cls-109,.cls-11,.cls-110,.cls-111,.cls-112,.cls-113,.cls-114,.cls-115,.cls-116,.cls-117,.cls-118,.cls-119,.cls-12,.cls-120,.cls-121,.cls-122,.cls-123,.cls-124,.cls-125,.cls-126,.cls-13,.cls-14,.cls-15,.cls-16,.cls-17,.cls-18,.cls-19,.cls-2,.cls-20,.cls-21,.cls-22,.cls-23,.cls-24,.cls-25,.cls-26,.cls-27,.cls-28,.cls-29,.cls-3,.cls-30,.cls-31,.cls-32,.cls-33,.cls-34,.cls-35,.cls-36,.cls-37,.cls-38,.cls-39,.cls-4,.cls-40,.cls-41,.cls-42,.cls-43,.cls-44,.cls-45,.cls-46,.cls-47,.cls-48,.cls-49,.cls-5,.cls-50,.cls-51,.cls-52,.cls-53,.cls-54,.cls-55,.cls-56,.cls-57,.cls-58,.cls-59,.cls-6,.cls-60,.cls-61,.cls-62,.cls-63,.cls-64,.cls-65,.cls-66,.cls-67,.cls-68,.cls-69,.cls-7,.cls-70,.cls-71,.cls-72,.cls-73,.cls-74,.cls-75,.cls-76,.cls-77,.cls-78,.cls-79,.cls-8,.cls-80,.cls-81,.cls-82,.cls-83,.cls-84,.cls-85,.cls-86,.cls-87,.cls-88,.cls-89,.cls-9,.cls-90,.cls-91,.cls-92,.cls-93,.cls-94,.cls-95,.cls-96,.cls-97,.cls-98,.cls-99{fill:none;stroke-miterlimit:10;}.cls-1{stroke:url(#linear-gradient);}.cls-2,.cls-64,.cls-96{stroke-dasharray:10.08 10.08;}.cls-2{stroke:url(#linear-gradient-2);}.cls-3{stroke:url(#linear-gradient-3);}.cls-35,.cls-4,.cls-66{stroke-dasharray:10.08 10.08;}.cls-4{stroke:url(#linear-gradient-4);}.cls-5{stroke:url(#linear-gradient-5);}.cls-100,.cls-37,.cls-6,.cls-68{stroke-dasharray:10.08 10.08;}.cls-6{stroke:url(#linear-gradient-6);}.cls-7{stroke:url(#linear-gradient-7);}.cls-102,.cls-39,.cls-8{stroke-dasharray:10.08 10.08;}.cls-8{stroke:url(#linear-gradient-8);}.cls-9{stroke:url(#linear-gradient-9);}.cls-10,.cls-41{stroke-dasharray:10.08 10.08;}.cls-10{stroke:url(#linear-gradient-10);}.cls-11{stroke:url(#linear-gradient-11);}.cls-106,.cls-12,.cls-43,.cls-74{stroke-dasharray:10.08 10.08;}.cls-12{stroke:url(#linear-gradient-12);}.cls-13{stroke:url(#linear-gradient-13);}.cls-108,.cls-14,.cls-45,.cls-76{stroke-dasharray:10.08 10.08;}.cls-14{stroke:url(#linear-gradient-14);}.cls-15{stroke:url(#linear-gradient-15);}.cls-110,.cls-112,.cls-16,.cls-18,.cls-49,.cls-78{stroke-dasharray:10.08 10.08;}.cls-16{stroke:url(#linear-gradient-16);}.cls-17{stroke:url(#linear-gradient-17);}.cls-18{stroke:url(#linear-gradient-18);}.cls-19{stroke:url(#linear-gradient-19);}.cls-114,.cls-20,.cls-51,.cls-82{stroke-dasharray:10.08 10.08;}.cls-20{stroke:url(#linear-gradient-20);}.cls-21{stroke:url(#linear-gradient-21);}.cls-22,.cls-53{stroke-dasharray:10.08 10.08;}.cls-22{stroke:url(#linear-gradient-22);}.cls-23{stroke:url(#linear-gradient-23);}.cls-118,.cls-24,.cls-55,.cls-86{stroke-dasharray:10.08 10.08;}.cls-24{stroke:url(#linear-gradient-24);}.cls-25{stroke:url(#linear-gradient-25);}.cls-120,.cls-26,.cls-57,.cls-88{stroke-dasharray:10.08 10.08;}.cls-26{stroke:url(#linear-gradient-26);}.cls-27{stroke:url(#linear-gradient-27);}.cls-122,.cls-28,.cls-59,.cls-90{stroke-dasharray:10.08 10.08;}.cls-28{stroke:url(#linear-gradient-28);}.cls-29{stroke:url(#linear-gradient-29);}.cls-124,.cls-30,.cls-61,.cls-92{stroke-dasharray:10.08 10.08;}.cls-30{stroke:url(#linear-gradient-30);}.cls-31{stroke:url(#linear-gradient-31);}.cls-126,.cls-32,.cls-63,.cls-94{stroke-dasharray:10.08 10.08;}.cls-32{stroke:url(#linear-gradient-32);}.cls-33{stroke:url(#linear-gradient-33);}.cls-34{stroke-dasharray:10.08 10.08;stroke:url(#linear-gradient-34);}.cls-35{stroke:url(#linear-gradient-36);}.cls-36{stroke:url(#linear-gradient-37);}.cls-37{stroke:url(#linear-gradient-38);}.cls-38{stroke:url(#linear-gradient-39);}.cls-39{stroke:url(#linear-gradient-40);}.cls-40{stroke:url(#linear-gradient-41);}.cls-41{stroke:url(#linear-gradient-42);}.cls-42{stroke:url(#linear-gradient-43);}.cls-43{stroke:url(#linear-gradient-44);}.cls-44{stroke:url(#linear-gradient-45);}.cls-45{stroke:url(#linear-gradient-46);}.cls-46{stroke:url(#linear-gradient-47);}.cls-47{stroke-dasharray:10.08 10.08;stroke:url(#linear-gradient-48);}.cls-48{stroke:url(#linear-gradient-49);}.cls-49{stroke:url(#linear-gradient-50);}.cls-50{stroke:url(#linear-gradient-51);}.cls-51{stroke:url(#linear-gradient-52);}.cls-52{stroke:url(#linear-gradient-53);}.cls-53{stroke:url(#linear-gradient-54);}.cls-54{stroke:url(#linear-gradient-55);}.cls-55{stroke:url(#linear-gradient-56);}.cls-56{stroke:url(#linear-gradient-57);}.cls-57{stroke:url(#linear-gradient-58);}.cls-58{stroke:url(#linear-gradient-59);}.cls-59{stroke:url(#linear-gradient-60);}.cls-60{stroke:url(#linear-gradient-61);}.cls-61{stroke:url(#linear-gradient-62);}.cls-62{stroke:url(#linear-gradient-63);}.cls-63{stroke:url(#linear-gradient-64);}.cls-64{stroke:url(#linear-gradient-66);}.cls-65{stroke:url(#linear-gradient-67);}.cls-66{stroke:url(#linear-gradient-68);}.cls-67{stroke:url(#linear-gradient-69);}.cls-68{stroke:url(#linear-gradient-70);}.cls-69{stroke:url(#linear-gradient-71);}.cls-70{stroke-dasharray:10.08 10.08;stroke:url(#linear-gradient-72);}.cls-71{stroke:url(#linear-gradient-73);}.cls-104,.cls-72{stroke-dasharray:10.08 10.08;}.cls-72{stroke:url(#linear-gradient-74);}.cls-73{stroke:url(#linear-gradient-75);}.cls-74{stroke:url(#linear-gradient-76);}.cls-75{stroke:url(#linear-gradient-77);}.cls-76{stroke:url(#linear-gradient-78);}.cls-77{stroke:url(#linear-gradient-79);}.cls-78{stroke:url(#linear-gradient-80);}.cls-79{stroke:url(#linear-gradient-81);}.cls-80{stroke-dasharray:10.08 10.08;stroke:url(#linear-gradient-82);}.cls-81{stroke:url(#linear-gradient-83);}.cls-82{stroke:url(#linear-gradient-84);}.cls-83{stroke:url(#linear-gradient-85);}.cls-116,.cls-84{stroke-dasharray:10.08 10.08;}.cls-84{stroke:url(#linear-gradient-86);}.cls-85{stroke:url(#linear-gradient-87);}.cls-86{stroke:url(#linear-gradient-88);}.cls-87{stroke:url(#linear-gradient-89);}.cls-88{stroke:url(#linear-gradient-90);}.cls-89{stroke:url(#linear-gradient-91);}.cls-90{stroke:url(#linear-gradient-92);}.cls-91{stroke:url(#linear-gradient-93);}.cls-92{stroke:url(#linear-gradient-94);}.cls-93{stroke:url(#linear-gradient-95);}.cls-94{stroke:url(#linear-gradient-96);}.cls-95{stroke:url(#linear-gradient-97);}.cls-96{stroke:url(#linear-gradient-98);}.cls-97{stroke:url(#linear-gradient-99);}.cls-98{stroke-dasharray:10.08 10.08;stroke:url(#linear-gradient-100);}.cls-99{stroke:url(#linear-gradient-101);}.cls-100{stroke:url(#linear-gradient-102);}.cls-101{stroke:url(#linear-gradient-103);}.cls-102{stroke:url(#linear-gradient-104);}.cls-103{stroke:url(#linear-gradient-105);}.cls-104{stroke:url(#linear-gradient-106);}.cls-105{stroke:url(#linear-gradient-107);}.cls-106{stroke:url(#linear-gradient-108);}.cls-107{stroke:url(#linear-gradient-109);}.cls-108{stroke:url(#linear-gradient-110);}.cls-109{stroke:url(#linear-gradient-111);}.cls-110{stroke:url(#linear-gradient-112);}.cls-111{stroke:url(#linear-gradient-113);}.cls-112{stroke:url(#linear-gradient-114);}.cls-113{stroke:url(#linear-gradient-115);}.cls-114{stroke:url(#linear-gradient-116);}.cls-115{stroke:url(#linear-gradient-117);}.cls-116{stroke:url(#linear-gradient-118);}.cls-117{stroke:url(#linear-gradient-119);}.cls-118{stroke:url(#linear-gradient-120);}.cls-119{stroke:url(#linear-gradient-121);}.cls-120{stroke:url(#linear-gradient-122);}.cls-121{stroke:url(#linear-gradient-123);}.cls-122{stroke:url(#linear-gradient-124);}.cls-123{stroke:url(#linear-gradient-125);}.cls-124{stroke:url(#linear-gradient-126);}.cls-125{stroke:url(#linear-gradient-127);}.cls-126{stroke:url(#linear-gradient-128);}</style><linearGradient id="linear-gradient" y1="107.38" x2="214.76" y2="107.38" gradientUnits="userSpaceOnUse"><stop offset="0.44" stop-color="#273995"/><stop offset="0.47" stop-color="#2a3b94" stop-opacity="0.99"/><stop offset="0.48" stop-color="#334191" stop-opacity="0.95"/><stop offset="0.48" stop-color="#444b8b" stop-opacity="0.89"/><stop offset="0.49" stop-color="#5c5a83" stop-opacity="0.8"/><stop offset="0.49" stop-color="#7c6e78" stop-opacity="0.68"/><stop offset="0.5" stop-color="#a2856b" stop-opacity="0.53"/><stop offset="0.5" stop-color="#c89d5e" stop-opacity="0.39"/><stop offset="0.74" stop-color="#c99e5c" stop-opacity="0.38"/><stop offset="0.83" stop-color="#cfa256" stop-opacity="0.34"/><stop offset="0.89" stop-color="#d8aa4c" stop-opacity="0.28"/><stop offset="0.94" stop-color="#e5b43d" stop-opacity="0.2"/><stop offset="0.98" stop-color="#f7c129" stop-opacity="0.08"/><stop offset="1" stop-color="#ffc820" stop-opacity="0.03"/></linearGradient><linearGradient id="linear-gradient-2" x1="0" y1="109.8" x2="214.76" y2="109.8" xlink:href="#linear-gradient"/><linearGradient id="linear-gradient-3" x1="0" y1="112.43" x2="214.76" y2="112.43" xlink:href="#linear-gradient"/><linearGradient id="linear-gradient-4" x1="0" y1="120.74" x2="214.76" y2="120.74" xlink:href="#linear-gradient"/><linearGradient id="linear-gradient-5" x1="0" y1="127.51" x2="214.76" y2="127.51" xlink:href="#linear-gradient"/><linearGradient id="linear-gradient-6" x1="0" y1="124.12" x2="214.76" y2="124.12" xlink:href="#linear-gradient"/><linearGradient id="linear-gradient-7" x1="0" y1="121.7" x2="214.76" y2="121.7" xlink:href="#linear-gradient"/><linearGradient id="linear-gradient-8" x1="0" y1="135.65" x2="214.76" y2="135.65" xlink:href="#linear-gradient"/><linearGradient id="linear-gradient-9" x1="0" y1="147.15" x2="214.76" y2="147.15" xlink:href="#linear-gradient"/><linearGradient id="linear-gradient-10" x1="0" y1="137.81" x2="214.76" y2="137.81" xlink:href="#linear-gradient"/><linearGradient id="linear-gradient-11" x1="0" y1="130.08" x2="214.76" y2="130.08" xlink:href="#linear-gradient"/><linearGradient id="linear-gradient-12" x1="0" y1="149.44" x2="214.76" y2="149.44" xlink:href="#linear-gradient"/><linearGradient id="linear-gradient-13" x1="0" y1="165.22" x2="214.76" y2="165.22" xlink:href="#linear-gradient"/><linearGradient id="linear-gradient-14" x1="0" y1="150.34" x2="214.76" y2="150.34" xlink:href="#linear-gradient"/><linearGradient id="linear-gradient-15" x1="0" y1="137.62" x2="214.76" y2="137.62" xlink:href="#linear-gradient"/><linearGradient id="linear-gradient-16" x1="0" y1="161.61" x2="214.76" y2="161.61" xlink:href="#linear-gradient"/><linearGradient id="linear-gradient-17" x1="0" y1="181.04" x2="214.76" y2="181.04" xlink:href="#linear-gradient"/><linearGradient id="linear-gradient-18" x1="0" y1="161.22" x2="214.76" y2="161.22" xlink:href="#linear-gradient"/><linearGradient id="linear-gradient-19" x1="0" y1="144.03" x2="214.76" y2="144.03" xlink:href="#linear-gradient"/><linearGradient id="linear-gradient-20" x1="0" y1="171.72" x2="214.76" y2="171.72" xlink:href="#linear-gradient"/><linearGradient id="linear-gradient-21" x1="0" y1="194.05" x2="214.76" y2="194.05" xlink:href="#linear-gradient"/><linearGradient id="linear-gradient-22" x1="0" y1="170.02" x2="214.76" y2="170.02" xlink:href="#linear-gradient"/><linearGradient id="linear-gradient-23" x1="0" y1="149.02" x2="214.76" y2="149.02" xlink:href="#linear-gradient"/><linearGradient id="linear-gradient-24" x1="0" y1="179.37" x2="214.76" y2="179.37" xlink:href="#linear-gradient"/><linearGradient id="linear-gradient-25" x1="0" y1="203.75" x2="214.76" y2="203.75" xlink:href="#linear-gradient"/><linearGradient id="linear-gradient-26" x1="0" y1="176.42" x2="214.76" y2="176.42" xlink:href="#linear-gradient"/><linearGradient id="linear-gradient-27" x1="0" y1="152.38" x2="214.76" y2="152.38" xlink:href="#linear-gradient"/><linearGradient id="linear-gradient-28" x1="0" y1="184.23" x2="214.76" y2="184.23" xlink:href="#linear-gradient"/><linearGradient id="linear-gradient-29" x1="0" y1="209.74" x2="214.76" y2="209.74" xlink:href="#linear-gradient"/><linearGradient id="linear-gradient-30" x1="0" y1="180.16" x2="214.76" y2="180.16" xlink:href="#linear-gradient"/><linearGradient id="linear-gradient-31" x1="0" y1="154.04" x2="214.76" y2="154.04" xlink:href="#linear-gradient"/><linearGradient id="linear-gradient-32" x1="0" y1="186.13" x2="214.76" y2="186.13" xlink:href="#linear-gradient"/><linearGradient id="linear-gradient-33" x1="0" y1="211.73" x2="214.76" y2="211.73" xlink:href="#linear-gradient"/><linearGradient id="linear-gradient-34" x1="0" y1="181.1" x2="214.76" y2="181.1" xlink:href="#linear-gradient"/><linearGradient id="linear-gradient-36" x1="0" y1="185.02" x2="214.76" y2="185.02" xlink:href="#linear-gradient"/><linearGradient id="linear-gradient-37" x1="0" y1="209.74" x2="214.76" y2="209.74" xlink:href="#linear-gradient"/><linearGradient id="linear-gradient-38" x1="0" y1="179.24" x2="214.76" y2="179.24" xlink:href="#linear-gradient"/><linearGradient id="linear-gradient-39" x1="0" y1="152.38" x2="214.76" y2="152.38" xlink:href="#linear-gradient"/><linearGradient id="linear-gradient-40" x1="0" y1="180.93" x2="214.76" y2="180.93" xlink:href="#linear-gradient"/><linearGradient id="linear-gradient-41" x1="0" y1="203.75" x2="214.76" y2="203.75" xlink:href="#linear-gradient"/><linearGradient id="linear-gradient-42" x1="0" y1="174.59" x2="214.76" y2="174.59" xlink:href="#linear-gradient"/><linearGradient id="linear-gradient-43" x1="0" y1="149.02" x2="214.76" y2="149.02" xlink:href="#linear-gradient"/><linearGradient id="linear-gradient-44" x1="0" y1="174" x2="214.76" y2="174" xlink:href="#linear-gradient"/><linearGradient id="linear-gradient-45" x1="0" y1="194.05" x2="214.76" y2="194.05" xlink:href="#linear-gradient"/><linearGradient id="linear-gradient-46" x1="0" y1="167.35" x2="214.76" y2="167.35" xlink:href="#linear-gradient"/><linearGradient id="linear-gradient-47" x1="0" y1="144.03" x2="214.76" y2="144.03" xlink:href="#linear-gradient"/><linearGradient id="linear-gradient-48" x1="0" y1="164.51" x2="214.76" y2="164.51" xlink:href="#linear-gradient"/><linearGradient id="linear-gradient-49" x1="0" y1="181.04" x2="214.76" y2="181.04" xlink:href="#linear-gradient"/><linearGradient id="linear-gradient-50" x1="0" y1="157.8" x2="214.76" y2="157.8" xlink:href="#linear-gradient"/><linearGradient id="linear-gradient-51" x1="0" y1="137.62" x2="214.76" y2="137.62" xlink:href="#linear-gradient"/><linearGradient id="linear-gradient-52" x1="0" y1="152.84" x2="214.76" y2="152.84" xlink:href="#linear-gradient"/><linearGradient id="linear-gradient-53" x1="0" y1="165.22" x2="214.76" y2="165.22" xlink:href="#linear-gradient"/><linearGradient id="linear-gradient-54" x1="0" y1="146.34" x2="214.76" y2="146.34" xlink:href="#linear-gradient"/><linearGradient id="linear-gradient-55" x1="0" y1="130.08" x2="214.76" y2="130.08" xlink:href="#linear-gradient"/><linearGradient id="linear-gradient-56" x1="0" y1="139.4" x2="214.76" y2="139.4" xlink:href="#linear-gradient"/><linearGradient id="linear-gradient-57" x1="0" y1="147.15" x2="214.76" y2="147.15" xlink:href="#linear-gradient"/><linearGradient id="linear-gradient-58" x1="0" y1="133.39" x2="214.76" y2="133.39" xlink:href="#linear-gradient"/><linearGradient id="linear-gradient-59" x1="0" y1="121.7" x2="214.76" y2="121.7" xlink:href="#linear-gradient"/><linearGradient id="linear-gradient-60" x1="0" y1="124.74" x2="214.76" y2="124.74" xlink:href="#linear-gradient"/><linearGradient id="linear-gradient-61" x1="0" y1="127.51" x2="214.76" y2="127.51" xlink:href="#linear-gradient"/><linearGradient id="linear-gradient-62" x1="0" y1="119.41" x2="214.76" y2="119.41" xlink:href="#linear-gradient"/><linearGradient id="linear-gradient-63" x1="0" y1="112.43" x2="214.76" y2="112.43" xlink:href="#linear-gradient"/><linearGradient id="linear-gradient-64" x1="0" y1="109.44" x2="214.76" y2="109.44" xlink:href="#linear-gradient"/><linearGradient id="linear-gradient-66" x1="0" y1="104.96" x2="214.76" y2="104.96" xlink:href="#linear-gradient"/><linearGradient id="linear-gradient-67" x1="0" y1="102.33" x2="214.76" y2="102.33" xlink:href="#linear-gradient"/><linearGradient id="linear-gradient-68" x1="0" y1="94.02" x2="214.76" y2="94.02" xlink:href="#linear-gradient"/><linearGradient id="linear-gradient-69" x1="0" y1="87.25" x2="214.76" y2="87.25" xlink:href="#linear-gradient"/><linearGradient id="linear-gradient-70" x1="0" y1="90.64" x2="214.76" y2="90.64" xlink:href="#linear-gradient"/><linearGradient id="linear-gradient-71" x1="0" y1="93.06" x2="214.76" y2="93.06" xlink:href="#linear-gradient"/><linearGradient id="linear-gradient-72" x1="0" y1="79.11" x2="214.76" y2="79.11" xlink:href="#linear-gradient"/><linearGradient id="linear-gradient-73" x1="0" y1="67.61" x2="214.76" y2="67.61" xlink:href="#linear-gradient"/><linearGradient id="linear-gradient-74" x1="0" y1="76.95" x2="214.76" y2="76.95" xlink:href="#linear-gradient"/><linearGradient id="linear-gradient-75" x1="0" y1="84.68" x2="214.76" y2="84.68" xlink:href="#linear-gradient"/><linearGradient id="linear-gradient-76" x1="0" y1="65.32" x2="214.76" y2="65.32" xlink:href="#linear-gradient"/><linearGradient id="linear-gradient-77" x1="0" y1="49.54" x2="214.76" y2="49.54" xlink:href="#linear-gradient"/><linearGradient id="linear-gradient-78" x1="0" y1="64.42" x2="214.76" y2="64.42" xlink:href="#linear-gradient"/><linearGradient id="linear-gradient-79" x1="0" y1="77.14" x2="214.76" y2="77.14" xlink:href="#linear-gradient"/><linearGradient id="linear-gradient-80" x1="0" y1="53.15" x2="214.76" y2="53.15" xlink:href="#linear-gradient"/><linearGradient id="linear-gradient-81" x1="0" y1="33.72" x2="214.76" y2="33.72" xlink:href="#linear-gradient"/><linearGradient id="linear-gradient-82" x1="0" y1="53.54" x2="214.76" y2="53.54" xlink:href="#linear-gradient"/><linearGradient id="linear-gradient-83" x1="0" y1="70.73" x2="214.76" y2="70.73" xlink:href="#linear-gradient"/><linearGradient id="linear-gradient-84" x1="0" y1="43.04" x2="214.76" y2="43.04" xlink:href="#linear-gradient"/><linearGradient id="linear-gradient-85" x1="0" y1="20.71" x2="214.76" y2="20.71" xlink:href="#linear-gradient"/><linearGradient id="linear-gradient-86" x1="0" y1="44.74" x2="214.76" y2="44.74" xlink:href="#linear-gradient"/><linearGradient id="linear-gradient-87" x1="0" y1="65.74" x2="214.76" y2="65.74" xlink:href="#linear-gradient"/><linearGradient id="linear-gradient-88" x1="0" y1="35.39" x2="214.76" y2="35.39" xlink:href="#linear-gradient"/><linearGradient id="linear-gradient-89" x1="0" y1="11.01" x2="214.76" y2="11.01" xlink:href="#linear-gradient"/><linearGradient id="linear-gradient-90" x1="0" y1="38.34" x2="214.76" y2="38.34" xlink:href="#linear-gradient"/><linearGradient id="linear-gradient-91" x1="0" y1="62.38" x2="214.76" y2="62.38" xlink:href="#linear-gradient"/><linearGradient id="linear-gradient-92" x1="0" y1="30.53" x2="214.76" y2="30.53" xlink:href="#linear-gradient"/><linearGradient id="linear-gradient-93" x1="0" y1="5.02" x2="214.76" y2="5.02" xlink:href="#linear-gradient"/><linearGradient id="linear-gradient-94" x1="0" y1="34.6" x2="214.76" y2="34.6" xlink:href="#linear-gradient"/><linearGradient id="linear-gradient-95" x1="0" y1="60.72" x2="214.76" y2="60.72" xlink:href="#linear-gradient"/><linearGradient id="linear-gradient-96" x1="0" y1="28.63" x2="214.76" y2="28.63" xlink:href="#linear-gradient"/><linearGradient id="linear-gradient-97" x1="0" y1="3.03" x2="214.76" y2="3.03" xlink:href="#linear-gradient"/><linearGradient id="linear-gradient-98" x1="0" y1="33.66" x2="214.76" y2="33.66" xlink:href="#linear-gradient"/><linearGradient id="linear-gradient-99" x1="0" y1="60.72" x2="214.76" y2="60.72" xlink:href="#linear-gradient"/><linearGradient id="linear-gradient-100" x1="0" y1="29.74" x2="214.76" y2="29.74" xlink:href="#linear-gradient"/><linearGradient id="linear-gradient-101" x1="0" y1="5.02" x2="214.76" y2="5.02" xlink:href="#linear-gradient"/><linearGradient id="linear-gradient-102" x1="0" y1="35.52" x2="214.76" y2="35.52" xlink:href="#linear-gradient"/><linearGradient id="linear-gradient-103" x1="0" y1="62.38" x2="214.76" y2="62.38" xlink:href="#linear-gradient"/><linearGradient id="linear-gradient-104" x1="0" y1="33.83" x2="214.76" y2="33.83" xlink:href="#linear-gradient"/><linearGradient id="linear-gradient-105" x1="0" y1="11.01" x2="214.76" y2="11.01" xlink:href="#linear-gradient"/><linearGradient id="linear-gradient-106" x1="0" y1="40.17" x2="214.76" y2="40.17" xlink:href="#linear-gradient"/><linearGradient id="linear-gradient-107" x1="0" y1="65.74" x2="214.76" y2="65.74" xlink:href="#linear-gradient"/><linearGradient id="linear-gradient-108" x1="0" y1="40.76" x2="214.76" y2="40.76" xlink:href="#linear-gradient"/><linearGradient id="linear-gradient-109" x1="0" y1="20.71" x2="214.76" y2="20.71" xlink:href="#linear-gradient"/><linearGradient id="linear-gradient-110" x1="0" y1="47.41" x2="214.76" y2="47.41" xlink:href="#linear-gradient"/><linearGradient id="linear-gradient-111" x1="0" y1="70.73" x2="214.76" y2="70.73" xlink:href="#linear-gradient"/><linearGradient id="linear-gradient-112" x1="0" y1="50.25" x2="214.76" y2="50.25" xlink:href="#linear-gradient"/><linearGradient id="linear-gradient-113" x1="0" y1="33.72" x2="214.76" y2="33.72" xlink:href="#linear-gradient"/><linearGradient id="linear-gradient-114" x1="0" y1="56.96" x2="214.76" y2="56.96" xlink:href="#linear-gradient"/><linearGradient id="linear-gradient-115" x1="0" y1="77.14" x2="214.76" y2="77.14" xlink:href="#linear-gradient"/><linearGradient id="linear-gradient-116" x1="0" y1="61.92" x2="214.76" y2="61.92" xlink:href="#linear-gradient"/><linearGradient id="linear-gradient-117" x1="0" y1="49.54" x2="214.76" y2="49.54" xlink:href="#linear-gradient"/><linearGradient id="linear-gradient-118" x1="0" y1="68.42" x2="214.76" y2="68.42" xlink:href="#linear-gradient"/><linearGradient id="linear-gradient-119" x1="0" y1="84.68" x2="214.76" y2="84.68" xlink:href="#linear-gradient"/><linearGradient id="linear-gradient-120" x1="0" y1="75.36" x2="214.76" y2="75.36" xlink:href="#linear-gradient"/><linearGradient id="linear-gradient-121" x1="0" y1="67.61" x2="214.76" y2="67.61" xlink:href="#linear-gradient"/><linearGradient id="linear-gradient-122" x1="0" y1="81.37" x2="214.76" y2="81.37" xlink:href="#linear-gradient"/><linearGradient id="linear-gradient-123" x1="0" y1="93.06" x2="214.76" y2="93.06" xlink:href="#linear-gradient"/><linearGradient id="linear-gradient-124" x1="0" y1="90.02" x2="214.76" y2="90.02" xlink:href="#linear-gradient"/><linearGradient id="linear-gradient-125" x1="0" y1="87.25" x2="214.76" y2="87.25" xlink:href="#linear-gradient"/><linearGradient id="linear-gradient-126" x1="0" y1="95.35" x2="214.76" y2="95.35" xlink:href="#linear-gradient"/><linearGradient id="linear-gradient-127" x1="0" y1="102.33" x2="214.76" y2="102.33" xlink:href="#linear-gradient"/><linearGradient id="linear-gradient-128" x1="0" y1="105.32" x2="214.76" y2="105.32" xlink:href="#linear-gradient"/></defs><title>bsh-logo</title><g id="Layer_2" data-name="Layer 2"><g id="Layer_1-2" data-name="Layer 1"><polyline class="cls-1" points="208.74 106.95 214.72 107.38 208.74 107.81"/><line class="cls-2" x1="198.69" y1="108.54" x2="163.52" y2="111.07"/><polyline class="cls-3" points="158.49 111.43 152.51 111.86 158.3 113.44"/><line class="cls-4" x1="168.02" y1="116.1" x2="202.03" y2="125.39"/><polyline class="cls-5" points="206.89 126.71 212.68 128.29 206.73 127.55"/><line class="cls-6" x1="196.73" y1="126.3" x2="161.74" y2="121.93"/><polyline class="cls-7" points="156.74 121.3 150.79 120.56 156.15 123.25"/><line class="cls-8" x1="165.16" y1="127.76" x2="196.7" y2="143.54"/><polyline class="cls-9" points="201.2 145.79 206.57 148.48 200.88 146.58"/><line class="cls-10" x1="191.32" y1="143.39" x2="157.87" y2="132.23"/><polyline class="cls-11" points="153.09 130.64 147.4 128.74 152.13 132.42"/><line class="cls-12" x1="160.08" y1="138.61" x2="187.91" y2="160.27"/><polyline class="cls-13" points="191.89 163.36 196.62 167.04 191.41 164.07"/><line class="cls-14" x1="182.66" y1="159.08" x2="152.03" y2="141.6"/><polyline class="cls-15" points="147.66 139.11 142.44 136.13 146.37 140.67"/><line class="cls-16" x1="152.97" y1="148.29" x2="176.06" y2="174.94"/><polyline class="cls-17" points="179.35 178.75 183.28 183.28 178.75 179.36"/><line class="cls-18" x1="171.13" y1="172.76" x2="144.48" y2="149.67"/><polyline class="cls-19" points="140.67 146.37 136.13 142.44 139.11 147.66"/><line class="cls-20" x1="144.1" y1="156.41" x2="161.57" y2="187.04"/><polyline class="cls-21" points="164.07 191.41 167.04 196.63 163.36 191.89"/><line class="cls-22" x1="157.17" y1="183.94" x2="135.52" y2="156.11"/><polyline class="cls-23" points="132.42 152.13 128.74 147.4 130.64 153.09"/><line class="cls-24" x1="133.82" y1="162.65" x2="144.98" y2="196.1"/><polyline class="cls-25" points="146.58 200.88 148.48 206.57 145.79 201.2"/><line class="cls-26" x1="141.28" y1="192.19" x2="125.5" y2="160.66"/><polyline class="cls-27" points="123.25 156.15 120.56 150.79 121.3 156.74"/><line class="cls-28" x1="122.55" y1="166.74" x2="126.93" y2="201.73"/><polyline class="cls-29" points="127.55 206.73 128.29 212.68 126.71 206.89"/><line class="cls-30" x1="124.06" y1="197.17" x2="114.77" y2="163.16"/><polyline class="cls-31" points="113.44 158.3 111.86 152.51 111.43 158.49"/><line class="cls-32" x1="110.71" y1="168.54" x2="108.17" y2="203.71"/><polyline class="cls-33" points="107.81 208.74 107.38 214.72 106.95 208.74"/><line class="cls-34" x1="106.22" y1="198.69" x2="103.69" y2="163.52"/><polyline class="cls-31" points="103.33 158.49 102.9 152.51 101.32 158.3"/><line class="cls-35" x1="98.66" y1="168.02" x2="89.37" y2="202.03"/><polyline class="cls-36" points="88.05 206.89 86.47 212.68 87.21 206.73"/><line class="cls-37" x1="88.46" y1="196.73" x2="92.83" y2="161.74"/><polyline class="cls-38" points="93.46 156.74 94.2 150.79 91.51 156.15"/><line class="cls-39" x1="87" y1="165.16" x2="71.22" y2="196.7"/><polyline class="cls-40" points="68.97 201.2 66.28 206.57 68.18 200.88"/><line class="cls-41" x1="71.37" y1="191.32" x2="82.53" y2="157.87"/><polyline class="cls-42" points="84.12 153.09 86.02 147.4 82.34 152.13"/><line class="cls-43" x1="76.15" y1="160.08" x2="54.49" y2="187.91"/><polyline class="cls-44" points="51.4 191.89 47.72 196.62 50.69 191.41"/><line class="cls-45" x1="55.68" y1="182.66" x2="73.16" y2="152.03"/><polyline class="cls-46" points="75.65 147.66 78.63 142.44 74.09 146.37"/><line class="cls-47" x1="66.47" y1="152.97" x2="39.82" y2="176.06"/><polyline class="cls-48" points="36.01 179.35 31.48 183.28 35.4 178.75"/><line class="cls-49" x1="42" y1="171.13" x2="65.09" y2="144.48"/><polyline class="cls-50" points="68.39 140.67 72.31 136.13 67.1 139.11"/><line class="cls-51" x1="58.35" y1="144.1" x2="27.72" y2="161.57"/><polyline class="cls-52" points="23.35 164.07 18.13 167.04 22.87 163.36"/><line class="cls-53" x1="30.82" y1="157.17" x2="58.65" y2="135.52"/><polyline class="cls-54" points="62.63 132.42 67.36 128.74 61.67 130.64"/><line class="cls-55" x1="52.11" y1="133.82" x2="18.66" y2="144.98"/><polyline class="cls-56" points="13.88 146.58 8.19 148.48 13.56 145.79"/><line class="cls-57" x1="22.57" y1="141.28" x2="54.1" y2="125.5"/><polyline class="cls-58" points="58.61 123.25 63.97 120.56 58.02 121.3"/><line class="cls-59" x1="48.02" y1="122.55" x2="13.03" y2="126.93"/><polyline class="cls-60" points="8.03 127.55 2.08 128.29 7.87 126.71"/><line class="cls-61" x1="17.59" y1="124.06" x2="51.6" y2="114.77"/><polyline class="cls-62" points="56.46 113.44 62.25 111.86 56.27 111.43"/><line class="cls-63" x1="46.22" y1="110.71" x2="11.05" y2="108.17"/><polyline class="cls-1" points="6.02 107.81 0.04 107.38 6.02 106.95"/><line class="cls-64" x1="16.07" y1="106.22" x2="51.24" y2="103.69"/><polyline class="cls-65" points="56.27 103.33 62.25 102.9 56.46 101.32"/><line class="cls-66" x1="46.74" y1="98.66" x2="12.73" y2="89.37"/><polyline class="cls-67" points="7.87 88.05 2.08 86.47 8.03 87.21"/><line class="cls-68" x1="18.03" y1="88.46" x2="53.02" y2="92.83"/><polyline class="cls-69" points="58.02 93.46 63.97 94.2 58.61 91.51"/><line class="cls-70" x1="49.6" y1="87" x2="18.06" y2="71.22"/><polyline class="cls-71" points="13.56 68.97 8.19 66.28 13.88 68.18"/><line class="cls-72" x1="23.44" y1="71.37" x2="56.89" y2="82.53"/><polyline class="cls-73" points="61.67 84.12 67.36 86.02 62.63 82.34"/><line class="cls-74" x1="54.68" y1="76.15" x2="26.85" y2="54.49"/><polyline class="cls-75" points="22.87 51.4 18.14 47.72 23.35 50.69"/><line class="cls-76" x1="32.1" y1="55.68" x2="62.73" y2="73.16"/><polyline class="cls-77" points="67.1 75.65 72.32 78.63 68.39 74.09"/><line class="cls-78" x1="61.79" y1="66.47" x2="38.7" y2="39.82"/><polyline class="cls-79" points="35.41 36.01 31.48 31.48 36.01 35.4"/><line class="cls-80" x1="43.63" y1="42" x2="70.28" y2="65.09"/><polyline class="cls-81" points="74.09 68.39 78.63 72.31 75.65 67.1"/><line class="cls-82" x1="70.66" y1="58.35" x2="53.19" y2="27.72"/><polyline class="cls-83" points="50.69 23.35 47.72 18.13 51.4 22.87"/><line class="cls-84" x1="57.59" y1="30.82" x2="79.24" y2="58.65"/><polyline class="cls-85" points="82.34 62.63 86.02 67.36 84.12 61.67"/><line class="cls-86" x1="80.94" y1="52.11" x2="69.78" y2="18.66"/><polyline class="cls-87" points="68.18 13.88 66.28 8.19 68.97 13.56"/><line class="cls-88" x1="73.48" y1="22.57" x2="89.26" y2="54.1"/><polyline class="cls-89" points="91.52 58.61 94.2 63.97 93.46 58.02"/><line class="cls-90" x1="92.21" y1="48.02" x2="87.83" y2="13.03"/><polyline class="cls-91" points="87.21 8.03 86.47 2.08 88.05 7.87"/><line class="cls-92" x1="90.7" y1="17.59" x2="99.99" y2="51.6"/><polyline class="cls-93" points="101.32 56.46 102.9 62.25 103.33 56.27"/><line class="cls-94" x1="104.05" y1="46.22" x2="106.59" y2="11.05"/><polyline class="cls-95" points="106.95 6.02 107.38 0.04 107.81 6.02"/><line class="cls-96" x1="108.54" y1="16.07" x2="111.07" y2="51.24"/><polyline class="cls-97" points="111.43 56.27 111.86 62.25 113.44 56.46"/><line class="cls-98" x1="116.1" y1="46.74" x2="125.39" y2="12.73"/><polyline class="cls-99" points="126.71 7.87 128.29 2.08 127.55 8.03"/><line class="cls-100" x1="126.3" y1="18.03" x2="121.93" y2="53.02"/><polyline class="cls-101" points="121.3 58.02 120.56 63.97 123.25 58.61"/><line class="cls-102" x1="127.76" y1="49.6" x2="143.54" y2="18.06"/><polyline class="cls-103" points="145.79 13.56 148.48 8.19 146.58 13.88"/><line class="cls-104" x1="143.39" y1="23.44" x2="132.23" y2="56.89"/><polyline class="cls-105" points="130.64 61.67 128.74 67.36 132.42 62.63"/><line class="cls-106" x1="138.61" y1="54.68" x2="160.27" y2="26.85"/><polyline class="cls-107" points="163.36 22.87 167.04 18.14 164.07 23.35"/><line class="cls-108" x1="159.08" y1="32.1" x2="141.6" y2="62.73"/><polyline class="cls-109" points="139.11 67.1 136.13 72.32 140.67 68.39"/><line class="cls-110" x1="148.29" y1="61.79" x2="174.94" y2="38.7"/><polyline class="cls-111" points="178.75 35.41 183.28 31.48 179.36 36.01"/><line class="cls-112" x1="172.76" y1="43.63" x2="149.67" y2="70.28"/><polyline class="cls-113" points="146.37 74.09 142.44 78.63 147.66 75.65"/><line class="cls-114" x1="156.41" y1="70.66" x2="187.04" y2="53.19"/><polyline class="cls-115" points="191.41 50.69 196.63 47.72 191.89 51.4"/><line class="cls-116" x1="183.94" y1="57.59" x2="156.11" y2="79.24"/><polyline class="cls-117" points="152.13 82.34 147.4 86.02 153.09 84.12"/><line class="cls-118" x1="162.65" y1="80.94" x2="196.1" y2="69.78"/><polyline class="cls-119" points="200.88 68.18 206.57 66.28 201.2 68.97"/><line class="cls-120" x1="192.19" y1="73.48" x2="160.66" y2="89.26"/><polyline class="cls-121" points="156.15 91.52 150.79 94.2 156.74 93.46"/><line class="cls-122" x1="166.74" y1="92.21" x2="201.73" y2="87.83"/><polyline class="cls-123" points="206.73 87.21 212.68 86.47 206.89 88.05"/><line class="cls-124" x1="197.17" y1="90.7" x2="163.16" y2="99.99"/><polyline class="cls-125" points="158.3 101.32 152.51 102.9 158.49 103.33"/><line class="cls-126" x1="168.54" y1="104.05" x2="203.71" y2="106.59"/></g></g></svg>